<svg width="508" height="80" fill="none" xmlns="http://www.w3.org/2000/svg"><g clip-path="url(#a)"><g clip-path="url(#b)" fill="#fff"><path d="M275.424 9.706h-1.008v59.289h1.008V9.705ZM118.43 12.501h-7.622v21.026h-4.215V12.501h-7.53V9.084h19.391l-.024 3.417Zm8.377 21.026h-4.229V9.084h4.229v24.443Zm24.653-3.177a8.02 8.02 0 0 1-1.075 1.118 7.772 7.772 0 0 1-1.773 1.142c-.832.392-1.706.69-2.604.889-1.17.26-2.366.381-3.565.363a11.03 11.03 0 0 1-4.224-.789 9.226 9.226 0 0 1-3.302-2.284 10.473 10.473 0 0 1-2.141-3.68 15.11 15.11 0 0 1-.741-4.984V20.51a16.617 16.617 0 0 1 .688-4.975 10.434 10.434 0 0 1 1.979-3.703 8.488 8.488 0 0 1 3.158-2.303 10.765 10.765 0 0 1 4.229-.789 11.95 11.95 0 0 1 3.9.578 7.996 7.996 0 0 1 2.8 1.625 7.438 7.438 0 0 1 1.797 2.476c.451.998.746 2.06.874 3.149h-4.181a7.17 7.17 0 0 0-.506-1.764 4.24 4.24 0 0 0-.956-1.395 4.352 4.352 0 0 0-1.51-.922 6.1 6.1 0 0 0-2.141-.34 5.65 5.65 0 0 0-2.595.56 4.826 4.826 0 0 0-1.83 1.62 7.571 7.571 0 0 0-1.09 2.618 15.472 15.472 0 0 0-.363 3.532v1.648a13.192 13.192 0 0 0 .435 3.565c.248.943.673 1.83 1.252 2.614a5.417 5.417 0 0 0 1.983 1.61c.829.38 1.732.57 2.643.555a10.59 10.59 0 0 0 1.873-.143 7.09 7.09 0 0 0 1.319-.359c.312-.122.607-.283.879-.478a4.36 4.36 0 0 0 .564-.478v-4.778h-5.046v-3.25h9.27v9.366Zm19.646-7.737H161.07v7.521h11.727v3.393h-15.984V9.084h15.87v3.427h-11.622v6.752h10.035l.01 3.35Zm14.823 1.491h-4.735v9.423h-4.239V9.084h8.601a13.38 13.38 0 0 1 3.747.478 7.647 7.647 0 0 1 2.776 1.41 5.982 5.982 0 0 1 1.721 2.308c.41 1.013.61 2.1.587 3.192a6.875 6.875 0 0 1-1.185 4.081 7.547 7.547 0 0 1-3.302 2.542l5.491 10.193v.22h-4.578l-4.884-9.404Zm-4.735-3.407h4.362a6.036 6.036 0 0 0 1.998-.302 4.018 4.018 0 0 0 1.434-.84c.376-.357.669-.793.855-1.276.194-.521.29-1.074.282-1.63a5.02 5.02 0 0 0-.268-1.701 3.34 3.34 0 0 0-.822-1.31 3.592 3.592 0 0 0-1.433-.84 6.453 6.453 0 0 0-2.074-.297h-4.349l.015 8.196Zm-80.426 49.129V45.402h8.377a14.735 14.735 0 0 1 3.56.392c.96.223 1.868.63 2.672 1.2a5.253 5.253 0 0 1 1.667 2.06c.409.932.608 1.944.583 2.962a5.284 5.284 0 0 1-.908 3.02 5.842 5.842 0 0 1-2.652 2.084c.655.17 1.276.45 1.835.831.511.34.958.766 1.319 1.262.343.497.601 1.048.765 1.63.169.6.254 1.22.253 1.844a7.739 7.739 0 0 1-.583 3.101 5.853 5.853 0 0 1-1.677 2.232 7.452 7.452 0 0 1-2.672 1.352c-1.156.317-2.351.47-3.55.454h-8.989Zm4.248-14.154h4.163a4.816 4.816 0 0 0 3.096-.899 3.079 3.079 0 0 0 1.118-2.547c0-1.207-.344-2.08-1.032-2.618-.688-.536-1.758-.808-3.216-.808h-4.129v6.872Zm0 3.12v7.646h4.717a5.83 5.83 0 0 0 1.84-.267c.493-.16.947-.42 1.333-.765.356-.328.632-.734.808-1.185a4.244 4.244 0 0 0 .267-1.53 4.064 4.064 0 0 0-.955-2.867c-.641-.692-1.673-1.041-3.107-1.041l-4.903.01Zm27.115 1.611h-4.736v9.423h-4.248V45.402h8.601a13.381 13.381 0 0 1 3.742.478 7.747 7.747 0 0 1 2.781 1.434 5.994 5.994 0 0 1 1.721 2.308c.41 1.013.609 2.1.587 3.192a6.876 6.876 0 0 1-1.185 4.057 7.535 7.535 0 0 1-3.297 2.542l5.495 10.193v.22h-4.554l-4.907-9.423Zm-4.736-3.408h4.368a6.015 6.015 0 0 0 1.997-.3 3.97 3.97 0 0 0 1.434-.842c.377-.356.669-.792.855-1.276.197-.52.294-1.073.287-1.63a5.15 5.15 0 0 0-.268-1.7 3.342 3.342 0 0 0-.826-1.31 3.602 3.602 0 0 0-1.434-.84 6.442 6.442 0 0 0-2.069-.297h-4.354l.01 8.195Zm37.412 1.243a15.864 15.864 0 0 1-.731 4.998 10.863 10.863 0 0 1-2.055 3.742 8.963 8.963 0 0 1-3.192 2.36 10.745 10.745 0 0 1-8.243 0 9.181 9.181 0 0 1-3.216-2.36 10.785 10.785 0 0 1-2.098-3.742 15.472 15.472 0 0 1-.75-4.998v-1.243a15.501 15.501 0 0 1 .75-5.003 11.078 11.078 0 0 1 2.079-3.76 8.925 8.925 0 0 1 3.201-2.366 10.715 10.715 0 0 1 8.244.014 8.86 8.86 0 0 1 3.206 2.366 10.888 10.888 0 0 1 2.065 3.76 15.96 15.96 0 0 1 .731 5.004l.009 1.228Zm-4.248-1.276a14.882 14.882 0 0 0-.397-3.618 7.744 7.744 0 0 0-1.146-2.628 5.029 5.029 0 0 0-1.859-1.605 5.534 5.534 0 0 0-2.49-.545 5.408 5.408 0 0 0-2.452.545 5.091 5.091 0 0 0-1.858 1.605 7.928 7.928 0 0 0-1.176 2.628 14.45 14.45 0 0 0-.411 3.618v1.276a14.53 14.53 0 0 0 .411 3.627c.228.948.63 1.846 1.185 2.647a5.112 5.112 0 0 0 1.873 1.61c.767.372 1.61.558 2.461.546a4.995 4.995 0 0 0 4.339-2.15c1.014-1.434 1.52-3.528 1.52-6.28v-1.276Zm16.186 2.298-2.772 2.94v7.645h-4.248V45.402h4.248v11.47l2.351-2.906 7.168-8.564h5.123l-9.08 10.829 9.605 13.62h-5.017l-7.378-10.59Zm29.637-.348h-10.035v7.517h11.736v3.392h-15.989V45.402h15.865v3.422h-11.617v6.752h10.035l.005 3.336Zm14.823 1.491h-4.735v9.423h-4.249V45.402h8.602a13.386 13.386 0 0 1 3.742.478 7.709 7.709 0 0 1 2.781 1.434 5.982 5.982 0 0 1 1.72 2.308c.41 1.013.61 2.1.588 3.192a6.883 6.883 0 0 1-1.185 4.057 7.54 7.54 0 0 1-3.297 2.542l5.49 10.193v.22h-4.554l-4.903-9.423Zm-4.735-3.408h4.367a6.02 6.02 0 0 0 1.998-.3 3.979 3.979 0 0 0 1.434-.842c.376-.356.669-.792.855-1.276.196-.52.294-1.073.287-1.63a5.15 5.15 0 0 0-.268-1.7 3.344 3.344 0 0 0-.827-1.31 3.592 3.592 0 0 0-1.433-.84 6.442 6.442 0 0 0-2.069-.297h-4.354l.01 8.195Zm30.679 6.533a3.681 3.681 0 0 0-.22-1.319 2.576 2.576 0 0 0-.798-1.066 6.57 6.57 0 0 0-1.591-.931 24.767 24.767 0 0 0-2.614-.956 25.991 25.991 0 0 1-3.221-1.19 11.167 11.167 0 0 1-2.547-1.563 6.624 6.624 0 0 1-1.668-2.021 5.625 5.625 0 0 1-.607-2.652 5.926 5.926 0 0 1 .631-2.72 6.363 6.363 0 0 1 1.773-2.15 8.357 8.357 0 0 1 2.733-1.41c1.143-.35 2.332-.52 3.527-.506a10.885 10.885 0 0 1 3.713.597 8.297 8.297 0 0 1 2.776 1.62 6.96 6.96 0 0 1 2.342 5.257h-4.229a4.67 4.67 0 0 0-.277-1.64 3.446 3.446 0 0 0-.846-1.29 3.926 3.926 0 0 0-1.434-.85 6.324 6.324 0 0 0-2.064-.301 6.69 6.69 0 0 0-1.945.253c-.499.14-.965.38-1.371.703a2.811 2.811 0 0 0-.803 1.075 3.383 3.383 0 0 0-.263 1.342 2.696 2.696 0 0 0 1.285 2.27 13.82 13.82 0 0 0 3.919 1.678c1.229.345 2.426.794 3.579 1.343.915.43 1.76.993 2.509 1.672a6 6 0 0 1 1.486 2.098c.333.835.495 1.73.478 2.628a6.174 6.174 0 0 1-.612 2.777 5.963 5.963 0 0 1-1.749 2.102 8.186 8.186 0 0 1-2.743 1.324 12.937 12.937 0 0 1-3.593.478 12.768 12.768 0 0 1-3.474-.478 9.879 9.879 0 0 1-3.073-1.434 7.509 7.509 0 0 1-2.193-2.413 6.694 6.694 0 0 1-.832-3.388h4.248a4.482 4.482 0 0 0 .411 1.988 3.69 3.69 0 0 0 1.128 1.362c.507.364 1.08.625 1.687.77a8.6 8.6 0 0 0 2.098.243c1.476 0 2.59-.296 3.345-.898a2.903 2.903 0 0 0 1.099-2.404ZM40.002 80.005h-.291a40.003 40.003 0 0 1 .282-80h.291a40.002 40.002 0 0 1-.286 80h.004Zm0-77.276a37.274 37.274 0 0 0-.263 74.547h.273a37.274 37.274 0 1 0 .267-74.547h-.277Z"/><path d="M61.459 16.3a9.218 9.218 0 0 0-11.345 6.427 31.912 31.912 0 0 1-30.708 23.359 31.83 31.83 0 0 1-18.04-5.601 38.44 38.44 0 0 0 3.456 15.512 38.412 38.412 0 0 1 3.612-8.97 35.048 35.048 0 0 0 5.462 1.338 124.623 124.623 0 0 0 2.256 17.5h-.956a37.888 37.888 0 0 1-4.066-.215 38.76 38.76 0 0 0 2.867 2.92c.392 0 .784.023 1.175.023a46.687 46.687 0 0 0 6.724-.506c12.902-1.912 23.387-6.643 31.171-14.117 6.886-6.608 11.727-15.23 14.814-26.344A9.237 9.237 0 0 0 61.46 16.3ZM36.877 61.277c-2.131-5.2-4.372-9.237-6.03-11.383-1.4-1.816-3.102-.688-2.495 1.61a134.563 134.563 0 0 1 2.585 11.866 69.747 69.747 0 0 1-9.423 2.036l-.206.029c-.602-6.59-.354-12.038.583-16.726a34.434 34.434 0 0 0 13.213-3.694c3.489 2.82 7.412 6.867 11.25 10.991a47.95 47.95 0 0 1-9.477 5.271Zm28.38-34.359c-3.13 11.312-8.31 20.119-15.635 26.513a106.679 106.679 0 0 0-7.966-12.75 34.513 34.513 0 0 0 4.563-4.626c2.916 1.314 5.983 2.867 9.204 4.66 1.137.635 2.915-.565.789-2.581a69.083 69.083 0 0 0-7.26-5.935 34.54 34.54 0 0 0 3.79-8.745 6.509 6.509 0 0 1 6.256-4.779 6.43 6.43 0 0 1 1.73.239 6.499 6.499 0 0 1 4.53 8.004ZM321.868 52.68h-3.713l-9.524-15.163V52.68h-3.713V31.305h3.713l9.558 15.225V31.305h3.684l-.005 21.375Zm16.606-4.974h-8.267l-1.73 4.974h-3.861l8.071-21.375h3.346l8.085 21.375h-3.875l-1.769-4.974Zm-7.239-2.997h6.212l-3.101-8.864-3.111 8.864Zm26.469 2.466a2.593 2.593 0 0 0-.994-2.174c-.66-.507-1.849-1.023-3.575-1.539a17.408 17.408 0 0 1-4.109-1.735c-1.947-1.223-2.92-2.816-2.92-4.778a5.22 5.22 0 0 1 2.107-4.258c1.399-1.112 3.221-1.67 5.467-1.673a9.198 9.198 0 0 1 3.976.822 6.561 6.561 0 0 1 2.748 2.342 6.02 6.02 0 0 1 .999 3.369h-3.699a3.315 3.315 0 0 0-1.051-2.6 4.36 4.36 0 0 0-3.001-.955 4.558 4.558 0 0 0-2.829.774 2.578 2.578 0 0 0-1.004 2.16 2.33 2.33 0 0 0 1.085 1.954 12.62 12.62 0 0 0 3.584 1.52 16.4 16.4 0 0 1 4.004 1.687 6.357 6.357 0 0 1 2.218 2.17c.487.875.731 1.865.707 2.866a5.084 5.084 0 0 1-2.05 4.249c-1.364 1.051-3.215 1.577-5.553 1.577a10.508 10.508 0 0 1-4.267-.856 7.227 7.227 0 0 1-3.025-2.39 5.926 5.926 0 0 1-1.075-3.526h3.713a3.45 3.45 0 0 0 1.204 2.82c.803.664 1.949.998 3.45.998 1.274 0 2.244-.26 2.91-.783a2.543 2.543 0 0 0 .98-2.04Zm6.972 5.505V31.305h6.293a9.874 9.874 0 0 1 5.032 1.267 8.604 8.604 0 0 1 3.398 3.579 11.362 11.362 0 0 1 1.204 5.314v1.07a11.306 11.306 0 0 1-1.213 5.343 8.48 8.48 0 0 1-3.451 3.555 10.35 10.35 0 0 1-5.127 1.247h-6.136Zm3.713-18.379v15.402h2.423c1.946 0 3.44-.608 4.482-1.825 1.042-1.217 1.572-2.97 1.591-5.257v-1.185c0-2.313-.503-4.081-1.51-5.304-1.006-1.224-2.47-1.834-4.391-1.83h-2.595Zm27.582 13.405h-8.276l-1.73 4.974h-3.861l8.071-21.375h3.345l8.086 21.375h-3.876l-1.759-4.974Zm-7.239-2.997h6.212l-3.111-8.864-3.101 8.864Zm31.936-2.174a13.193 13.193 0 0 1-.956 5.257 8.551 8.551 0 0 1-2.69 3.531l3.665 2.867-2.389 2.175-4.554-3.599a9.087 9.087 0 0 1-1.912.191 8.542 8.542 0 0 1-4.616-1.266 8.33 8.33 0 0 1-3.14-3.622 12.658 12.658 0 0 1-1.123-5.415V41.45a12.989 12.989 0 0 1 1.109-5.52 8.28 8.28 0 0 1 3.125-3.66 8.478 8.478 0 0 1 4.616-1.27 8.604 8.604 0 0 1 4.66 1.256 8.233 8.233 0 0 1 3.12 3.608 12.958 12.958 0 0 1 1.114 5.481l-.029 1.19Zm-3.728-1.113c0-2.409-.449-4.234-1.347-5.477a4.445 4.445 0 0 0-3.823-1.863 4.364 4.364 0 0 0-3.751 1.887c-.902 1.255-1.364 3.028-1.386 5.319v1.247c0 2.313.478 4.115 1.357 5.42a4.748 4.748 0 0 0 5.927 1.464 4.748 4.748 0 0 0 1.69-1.393c.883-1.252 1.326-3.083 1.329-5.49l.004-1.114Zm42.636-7.121h-6.69v18.38h-3.685V34.3h-6.604v-2.996h16.955l.024 2.996ZM466.3 52.68h-3.699V31.305h3.699V52.68Zm20.944-2.776a7.092 7.092 0 0 1-3.216 2.294 13.16 13.16 0 0 1-4.664.774 9.204 9.204 0 0 1-4.778-1.219 8.145 8.145 0 0 1-3.192-3.483 12.235 12.235 0 0 1-1.166-5.295v-1.673c0-3.23.772-5.752 2.317-7.565 1.545-1.812 3.704-2.72 6.475-2.723 2.38 0 4.269.589 5.668 1.768 1.398 1.179 2.239 2.873 2.523 5.084h-3.641c-.411-2.57-1.904-3.856-4.478-3.856a4.398 4.398 0 0 0-3.794 1.792c-.864 1.195-1.311 2.947-1.343 5.257v1.639c0 2.303.487 4.092 1.462 5.366a4.835 4.835 0 0 0 4.057 1.911c1.912 0 3.25-.43 4.053-1.285v-4.162h-4.402v-2.82h8.124l-.005 8.196Zm11.938-5.457h-4.144v8.219h-3.713v-21.36h7.517c2.466 0 4.378.553 5.735 1.662 1.338 1.104 2.012 2.71 2.012 4.803a6.013 6.013 0 0 1-1.037 3.593 6.592 6.592 0 0 1-2.868 2.227l4.779 8.898v.191h-3.981l-4.3-8.233Zm-4.144-2.997h3.823a4.241 4.241 0 0 0 2.935-.955 3.289 3.289 0 0 0 1.056-2.59 3.524 3.524 0 0 0-.956-2.657c-.637-.638-1.609-.956-2.915-.956h-3.919l-.024 7.158Zm-63.508-2.647a1.65 1.65 0 0 1-1.654-1.625 1.654 1.654 0 0 1 3.307 0 1.645 1.645 0 0 1-1.653 1.625Zm0 10.78a1.65 1.65 0 0 1-1.654-1.624 1.654 1.654 0 0 1 3.307 0 1.646 1.646 0 0 1-1.653 1.625Z"/></g></g><defs><clipPath id="a"><path fill="#fff" d="M0 0h507.444v80H0z"/></clipPath><clipPath id="b"><path fill="#fff" d="M0 0h507.444v80H0z"/></clipPath></defs></svg>